<svg width="473" height="444" viewBox="0 0 473 444" fill="none" xmlns="http://www.w3.org/2000/svg">
<path d="M417.049 63.217C380.848 24.7819 331.013 2.0834 278.255 0V202.011L417.049 63.217Z" fill="#3F3D56"/>
<path d="M417.049 88.37L278.255 227.164H472.223C472.292 175.539 452.542 125.858 417.049 88.37V88.37Z" fill="#E4E4E4"/>
<path d="M472.43 241.68C472.438 254.271 471.273 266.835 468.95 279.21C468.77 280.19 468.58 281.16 468.38 282.13C464 303.716 456.094 324.434 444.98 343.45C444.39 344.47 443.78 345.49 443.17 346.49V346.5C432.216 364.524 418.518 380.728 402.57 394.53C401.78 395.22 400.99 395.9 400.19 396.57C365.917 425.405 323.007 441.986 278.25 443.69V241.68H472.43Z" fill="#F0F0F0"/>
<path d="M258.632 443.866C261.317 443.866 263.986 443.798 266.646 443.694V241.675L119.729 388.591C157.229 424.147 206.956 443.935 258.632 443.866V443.866Z" fill="#CACACA"/>
<path d="M258.906 24.9728C147.239 24.9728 56.7153 115.497 56.7153 227.164H267.13V25.153C264.401 25.0438 261.662 24.9728 258.906 24.9728Z" fill="#6C63FF"/>
<path d="M210.67 241.68L168.16 284.19L166.77 285.58L166.74 285.61L129.67 322.67L128.26 324.08L88.21 364.13L86.7998 365.54V365.55L63.75 388.59C43.7356 369.716 27.7956 346.946 16.9111 321.681C6.0267 296.415 0.428138 269.19 0.460005 241.68H210.67Z" fill="#6C63FF"/>
<path d="M86.8 365.548C53.6248 332.693 34.2396 288.415 32.6013 241.752L36.5989 241.608C38.202 287.256 57.166 330.571 89.6199 362.711L86.8 365.548Z" fill="#3F3D56"/>
<path d="M129.71 322.71L126.81 325.45C104.71 302.114 89.1116 273.393 81.5698 242.15L83.5103 241.68H85.5698C92.9872 272.048 108.186 299.961 129.67 322.67L129.71 322.71Z" fill="#3F3D56"/>
<path d="M168.27 284.33L166.77 285.58L166.74 285.61L165.2 286.89C153.98 273.469 144.733 258.515 137.74 242.48L139.57 241.68H141.76C148.533 257.013 157.419 271.321 168.16 284.19C168.194 284.239 168.23 284.286 168.27 284.33Z" fill="#3F3D56"/>
</svg>
